<?xml version="1.0" standalone="no"?>
<!DOCTYPE svg PUBLIC "-//W3C//DTD SVG 20010904//EN"
 "http://www.w3.org/TR/2001/REC-SVG-20010904/DTD/svg10.dtd">
<svg version="1.0" xmlns="http://www.w3.org/2000/svg"
 width="1110.000000pt" height="1110.000000pt" viewBox="0 0 1110.000000 1110.000000"
 preserveAspectRatio="xMidYMid meet">
<metadata>
Created by potrace 1.11, written by Peter Selinger 2001-2013
</metadata>
<g transform="translate(0.000000,1110.000000) scale(0.100000,-0.100000)"
fill="#000000" stroke="none">
<path d="M5070 11090 c0 -6 -41 -10 -104 -10 -59 0 -108 -4 -111 -10 -3 -5
-37 -10 -75 -10 -38 0 -72 -4 -75 -10 -3 -5 -33 -10 -65 -10 -32 0 -62 -4 -65
-10 -3 -5 -32 -10 -64 -10 -40 0 -63 -5 -71 -15 -7 -8 -27 -15 -46 -15 -18 0
-36 -4 -39 -10 -3 -5 -28 -10 -55 -10 -27 0 -52 -4 -55 -10 -3 -5 -17 -10 -30
-10 -13 0 -27 -4 -30 -10 -3 -5 -28 -10 -55 -10 -27 0 -52 -4 -55 -10 -3 -5
-17 -10 -30 -10 -13 0 -27 -4 -30 -10 -3 -5 -23 -10 -44 -10 -22 0 -44 -6 -51
-15 -7 -8 -23 -15 -36 -15 -12 0 -26 -4 -29 -10 -3 -5 -19 -10 -36 -10 -16 0
-29 -4 -29 -10 0 -5 -13 -10 -29 -10 -17 0 -33 -4 -36 -10 -3 -5 -15 -10 -25
-10 -10 0 -48 -16 -84 -35 -37 -19 -73 -35 -81 -35 -8 0 -30 -9 -50 -20 -20
-11 -51 -20 -70 -20 -19 0 -35 -4 -35 -10 0 -5 -6 -10 -13 -10 -17 0 -115 -49
-123 -61 -3 -5 -16 -9 -29 -9 -13 0 -27 -4 -30 -10 -3 -5 -15 -10 -26 -10 -10
0 -19 -4 -19 -10 0 -5 -6 -10 -12 -10 -7 0 -44 -16 -83 -36 -98 -50 -112 -59
-133 -77 -10 -10 -26 -17 -35 -17 -9 0 -17 -4 -17 -10 0 -5 -8 -10 -19 -10
-10 0 -25 -7 -32 -16 -7 -9 -22 -20 -34 -25 -31 -15 -63 -34 -82 -51 -10 -8
-35 -22 -55 -32 -20 -9 -40 -21 -43 -26 -3 -5 -29 -20 -59 -34 -29 -14 -59
-32 -66 -41 -7 -8 -18 -15 -25 -15 -6 0 -20 -9 -30 -20 -10 -11 -23 -20 -30
-20 -6 0 -22 -11 -35 -25 -13 -14 -29 -25 -35 -25 -6 0 -24 -13 -40 -30 -16
-16 -34 -30 -40 -30 -6 0 -26 -16 -45 -35 -19 -19 -40 -35 -48 -35 -7 0 -31
-18 -52 -40 -21 -22 -45 -40 -52 -40 -7 0 -43 -29 -78 -65 -35 -36 -69 -65
-75 -65 -13 0 -525 -512 -525 -525 0 -6 -29 -40 -65 -75 -36 -35 -65 -71 -65
-78 0 -7 -18 -31 -40 -52 -22 -21 -40 -45 -40 -53 0 -8 -16 -29 -35 -46 -19
-17 -35 -36 -35 -44 0 -7 -13 -26 -30 -42 -16 -16 -30 -34 -30 -40 0 -6 -11
-22 -25 -35 -14 -13 -25 -29 -25 -35 0 -7 -9 -20 -20 -30 -11 -10 -20 -24 -20
-30 0 -7 -7 -18 -15 -25 -9 -7 -27 -38 -42 -67 -14 -30 -31 -57 -39 -60 -8 -3
-14 -11 -14 -19 0 -16 -17 -49 -39 -77 -16 -19 -36 -52 -50 -82 -5 -12 -16
-27 -25 -34 -9 -7 -16 -22 -16 -32 0 -11 -4 -19 -10 -19 -5 0 -10 -8 -10 -17
0 -9 -7 -25 -17 -35 -18 -21 -27 -35 -77 -133 -20 -39 -36 -76 -36 -83 0 -6
-4 -12 -10 -12 -5 0 -10 -8 -10 -19 0 -10 -7 -24 -15 -31 -9 -7 -13 -20 -10
-28 3 -8 0 -21 -6 -29 -18 -21 -59 -105 -59 -120 0 -7 -4 -13 -10 -13 -5 0
-10 -16 -10 -35 0 -19 -11 -54 -25 -78 -13 -25 -22 -47 -19 -50 3 -2 -11 -35
-30 -72 -20 -37 -36 -75 -36 -85 0 -10 -4 -22 -10 -25 -5 -3 -10 -19 -10 -36
0 -16 -4 -29 -10 -29 -5 0 -10 -12 -10 -27 0 -16 -7 -36 -15 -46 -7 -11 -11
-25 -9 -31 3 -7 -2 -19 -11 -26 -9 -7 -15 -28 -15 -51 0 -21 -4 -41 -10 -44
-5 -3 -10 -17 -10 -30 0 -13 -4 -27 -10 -30 -5 -3 -10 -28 -10 -55 0 -27 -4
-52 -10 -55 -5 -3 -10 -17 -10 -30 0 -13 -4 -27 -10 -30 -5 -3 -10 -28 -10
-54 0 -30 -5 -53 -15 -61 -9 -7 -12 -22 -9 -39 4 -18 0 -32 -10 -40 -11 -10
-16 -31 -16 -72 0 -32 -4 -61 -10 -64 -5 -3 -10 -33 -10 -65 0 -32 -4 -62 -10
-65 -5 -3 -10 -37 -10 -75 0 -38 -5 -72 -10 -75 -6 -3 -10 -52 -10 -111 0 -63
-4 -104 -10 -104 -7 0 -10 -170 -10 -490 0 -320 3 -490 10 -490 6 0 10 -38 10
-94 0 -53 4 -98 10 -101 6 -3 10 -37 10 -75 0 -38 4 -72 10 -75 5 -3 10 -33
10 -65 0 -32 5 -62 10 -65 6 -3 10 -32 10 -64 0 -41 5 -62 16 -72 10 -8 14
-22 10 -40 -3 -17 0 -32 9 -39 9 -7 15 -29 15 -51 0 -21 5 -41 10 -44 6 -3 10
-28 10 -56 0 -27 5 -49 10 -49 6 0 10 -18 10 -39 0 -22 5 -43 10 -46 5 -3 10
-17 10 -30 0 -13 5 -27 10 -30 6 -3 10 -19 10 -34 0 -16 7 -34 16 -42 9 -7 14
-22 11 -36 -2 -13 2 -31 9 -40 7 -10 14 -30 14 -45 0 -16 5 -28 10 -28 6 0 10
-13 10 -29 0 -17 5 -33 10 -36 6 -3 10 -15 10 -25 0 -11 9 -35 20 -55 11 -20
20 -46 20 -59 0 -13 7 -29 15 -36 9 -7 14 -18 12 -24 -2 -6 6 -30 19 -54 13
-23 24 -53 24 -65 0 -12 9 -29 20 -37 11 -8 20 -24 20 -37 0 -12 5 -25 10 -28
6 -3 10 -14 10 -24 0 -10 7 -24 15 -31 9 -7 13 -21 10 -30 -3 -9 1 -23 10 -30
8 -7 15 -21 15 -31 0 -11 5 -19 10 -19 6 0 10 -6 10 -13 0 -20 28 -73 45 -87
8 -7 15 -23 15 -36 0 -12 4 -25 9 -29 12 -7 41 -64 41 -79 0 -7 9 -18 20 -26
11 -8 20 -20 20 -27 0 -16 19 -51 43 -80 22 -25 67 -111 67 -127 0 -6 9 -17
20 -24 11 -7 20 -19 20 -27 0 -8 16 -29 35 -48 19 -19 35 -38 35 -44 0 -16 29
-70 45 -83 8 -7 15 -18 15 -24 0 -7 11 -23 25 -36 14 -13 25 -28 25 -33 0 -6
19 -31 42 -58 59 -65 88 -105 88 -119 0 -6 18 -29 40 -50 22 -21 40 -46 40
-55 0 -8 8 -19 19 -23 18 -7 91 -95 91 -110 0 -11 534 -542 545 -542 6 0 40
-29 75 -65 35 -36 71 -65 78 -65 7 0 31 -18 52 -40 21 -22 44 -40 52 -40 16 0
68 -46 68 -60 0 -6 8 -10 18 -10 10 0 31 -14 47 -30 16 -17 34 -30 40 -30 7 0
20 -9 31 -21 10 -11 37 -29 59 -39 22 -10 51 -30 64 -44 14 -14 30 -26 36 -26
7 0 24 -11 39 -25 15 -14 33 -25 40 -25 7 0 21 -9 31 -20 10 -11 25 -20 34
-20 9 0 34 -15 56 -32 40 -34 120 -78 139 -78 7 0 18 -9 26 -20 8 -11 24 -20
36 -20 12 0 32 -8 45 -19 34 -26 158 -91 175 -91 8 0 14 -4 14 -10 0 -5 8 -10
19 -10 10 0 24 -7 31 -15 7 -9 18 -14 24 -12 6 2 39 -11 74 -30 35 -18 70 -33
78 -33 8 0 14 -4 14 -10 0 -5 12 -10 28 -11 15 0 41 -9 57 -20 17 -10 42 -24
58 -30 15 -6 27 -15 27 -19 0 -5 25 -12 55 -15 30 -4 58 -11 61 -16 3 -5 16
-9 29 -9 13 0 27 -4 30 -10 3 -5 19 -10 36 -10 16 0 29 -5 29 -11 0 -22 77
-46 248 -75 18 -4 35 -10 38 -15 3 -5 23 -9 45 -9 40 0 48 -7 27 -28 -9 -9 -1
-12 39 -12 29 0 54 -4 57 -9 4 -5 19 -5 36 2 23 9 35 9 50 -1 11 -6 37 -12 59
-12 22 0 44 -6 51 -15 7 -8 24 -15 39 -15 14 0 42 -8 60 -18 29 -15 43 -17 84
-10 33 6 53 6 60 -1 6 -6 41 -11 78 -11 37 0 71 -4 74 -10 3 -5 19 -10 36 -10
16 0 29 -4 29 -10 0 -5 25 -10 55 -10 30 0 55 5 55 10 0 6 9 10 20 10 11 0 20
-4 20 -10 0 -7 173 -10 500 -10 327 0 500 3 500 10 0 6 32 10 75 10 43 0 75
-4 75 -10 0 -16 52 -12 64 5 7 10 36 18 79 22 37 3 70 10 73 14 3 5 32 9 64 9
32 0 62 5 65 10 3 6 28 10 54 10 31 0 53 5 61 15 8 9 21 13 37 9 13 -4 41 0
61 8 66 27 108 38 145 38 20 0 37 5 37 10 0 6 18 10 39 10 22 0 43 4 46 10 3
5 17 10 30 10 13 0 27 4 30 10 3 5 23 10 44 10 22 0 44 6 51 15 7 8 23 15 36
15 12 0 26 5 29 10 3 6 17 10 30 10 14 0 40 9 60 20 20 11 44 20 55 20 10 0
22 5 25 10 3 6 17 10 30 10 13 0 27 5 30 10 3 6 19 10 34 10 16 0 34 7 41 15
7 8 21 15 31 15 10 0 34 9 54 20 20 11 47 20 60 20 14 0 25 5 25 10 0 6 6 10
14 10 8 0 31 9 53 20 78 40 147 70 160 70 7 0 13 5 13 10 0 6 6 10 13 10 18 0
103 44 127 65 24 21 109 65 127 65 7 0 13 4 13 9 0 5 8 11 18 14 9 4 35 17 57
31 22 14 68 39 101 55 34 17 67 38 74 46 7 8 18 15 26 15 7 0 25 11 40 25 15
14 32 25 39 25 7 0 20 9 30 20 10 11 23 20 30 20 7 0 20 9 30 20 10 11 23 20
30 20 6 0 22 11 35 25 13 14 29 25 35 25 6 0 24 13 40 30 16 16 34 30 40 30 6
0 26 16 45 35 19 19 40 35 48 35 7 0 31 18 52 40 21 22 45 40 52 40 7 0 43 29
78 65 35 36 69 65 75 65 13 0 525 512 525 525 0 6 29 40 65 75 36 35 65 71 65
78 0 7 18 31 40 52 22 21 40 45 40 53 0 8 16 29 35 46 19 17 35 36 35 44 0 7
14 26 30 42 17 16 30 34 30 40 0 6 11 22 25 35 14 13 25 29 25 35 0 7 9 20 20
30 11 10 20 24 20 30 0 7 7 18 16 25 8 8 21 28 29 47 8 18 21 36 30 39 8 3 15
15 15 25 0 10 9 24 20 31 11 7 20 18 20 25 0 12 28 65 77 148 13 22 26 48 30
57 3 10 9 18 14 18 5 0 9 9 9 20 0 11 5 20 10 20 6 0 10 7 10 15 0 18 18 52
43 82 23 27 67 112 67 130 0 7 5 13 10 13 6 0 10 6 10 13 0 13 30 82 70 160
11 22 20 45 20 53 0 8 5 14 10 14 6 0 10 11 10 25 0 13 11 44 24 67 13 24 21
48 19 54 -2 6 3 17 12 24 8 7 15 25 15 41 0 15 5 31 10 34 5 3 10 17 10 30 0
13 5 27 10 30 6 3 10 15 10 25 0 11 9 35 20 55 11 20 20 46 20 58 0 12 7 30
15 40 7 11 11 25 9 31 -3 7 2 19 11 26 9 7 15 28 15 51 0 21 5 41 10 44 6 3
10 17 10 30 0 13 5 27 10 30 6 3 10 24 10 46 0 21 5 39 10 39 6 0 10 20 10 45
0 25 4 53 9 63 21 42 34 90 35 124 1 21 7 43 14 50 6 6 12 33 12 59 0 26 5 51
10 54 6 3 10 33 10 65 0 32 4 61 9 64 4 3 11 36 14 73 4 43 12 72 22 79 17 12
21 64 5 64 -6 0 -10 32 -10 75 0 43 4 75 10 75 7 0 10 173 10 500 0 327 -3
500 -10 500 -5 0 -10 9 -10 20 0 11 5 20 10 20 6 0 10 25 10 55 0 30 -4 55
-10 55 -5 0 -10 13 -10 29 0 17 -4 33 -10 36 -5 3 -10 37 -10 74 0 37 -5 72
-11 78 -7 7 -7 27 -1 62 8 46 7 54 -9 64 -14 9 -19 24 -19 58 0 28 -6 51 -14
58 -8 7 -14 29 -14 50 0 21 -4 46 -10 57 -6 10 -16 53 -22 94 -6 41 -15 77
-20 78 -6 2 -10 21 -10 42 0 21 -4 42 -10 45 -5 3 -10 17 -10 30 0 13 -4 27
-10 30 -5 3 -10 17 -10 31 0 13 -11 47 -25 76 -14 28 -25 67 -25 85 0 18 -4
33 -10 33 -5 0 -10 13 -10 29 0 17 -4 33 -10 36 -5 3 -10 14 -10 23 0 9 -16
50 -36 90 -19 41 -33 79 -31 85 2 7 -6 31 -19 55 -13 23 -24 54 -24 67 0 14
-4 25 -10 25 -5 0 -10 6 -10 13 0 15 -41 99 -59 120 -6 8 -9 21 -6 29 3 8 -1
21 -10 28 -8 7 -15 21 -15 31 0 11 -4 19 -10 19 -5 0 -10 6 -10 13 0 18 -44
103 -67 130 -28 34 -43 65 -43 90 0 12 -9 29 -20 37 -11 8 -20 19 -20 26 0 18
-29 70 -50 89 -11 10 -20 24 -20 30 0 7 -7 18 -15 25 -17 14 -45 67 -45 87 0
7 -4 13 -10 13 -5 0 -10 9 -10 19 0 10 -7 22 -15 25 -9 3 -22 20 -30 39 -7 18
-23 41 -35 52 -12 11 -30 38 -40 60 -10 22 -28 49 -39 59 -12 11 -21 24 -21
31 0 6 -13 24 -30 40 -16 16 -30 37 -30 47 0 11 -7 18 -20 18 -11 0 -20 6 -20
13 0 8 -11 24 -25 37 -14 13 -25 30 -25 38 0 8 -14 27 -30 42 -16 15 -30 34
-30 42 0 7 -29 43 -65 78 -36 35 -65 69 -65 75 0 14 -532 545 -546 545 -6 0
-19 9 -29 20 -10 11 -24 20 -32 20 -19 0 -40 22 -45 46 -2 10 -12 20 -22 22
-11 3 -36 22 -57 43 -21 21 -44 39 -52 39 -8 0 -20 7 -27 15 -7 8 -18 15 -24
15 -7 0 -34 23 -61 50 -27 28 -54 50 -60 50 -7 0 -22 11 -35 25 -13 14 -29 25
-36 25 -6 0 -17 7 -24 15 -13 15 -67 45 -82 45 -5 0 -25 16 -44 35 -18 19 -40
35 -48 35 -7 0 -19 7 -26 15 -7 8 -41 29 -75 45 -34 16 -68 36 -75 45 -14 16
-67 45 -84 45 -7 0 -18 9 -26 20 -8 11 -19 20 -26 20 -15 0 -72 29 -79 41 -4
5 -17 9 -29 9 -13 0 -29 7 -36 15 -14 17 -67 45 -87 45 -7 0 -13 5 -13 10 0 6
-9 10 -19 10 -11 0 -23 5 -26 10 -3 6 -17 10 -29 10 -13 0 -29 7 -36 15 -7 8
-23 15 -36 15 -12 0 -26 5 -29 10 -3 6 -14 10 -23 10 -10 0 -24 9 -32 20 -8
11 -25 20 -37 20 -12 0 -38 9 -58 20 -20 11 -44 20 -54 20 -10 0 -24 7 -31 15
-7 8 -23 15 -36 15 -13 0 -39 9 -59 20 -20 11 -44 20 -55 20 -10 0 -22 5 -25
10 -3 6 -19 10 -36 10 -16 0 -29 5 -29 10 0 6 -13 10 -29 10 -17 0 -33 5 -36
10 -3 6 -21 10 -39 10 -19 0 -39 7 -46 15 -7 8 -25 15 -41 15 -15 0 -31 5 -34
10 -3 6 -17 10 -30 10 -13 0 -27 5 -30 10 -3 6 -24 10 -46 10 -21 0 -39 5 -39
10 0 6 -22 10 -49 10 -28 0 -53 5 -56 10 -3 6 -24 10 -45 10 -21 0 -42 5 -45
10 -3 6 -21 10 -39 10 -19 0 -39 7 -46 15 -8 10 -31 15 -71 15 -32 0 -61 5
-64 10 -3 6 -33 10 -65 10 -32 0 -62 5 -65 10 -3 6 -37 10 -75 10 -38 0 -72 5
-75 10 -3 6 -52 10 -111 10 -63 0 -104 4 -104 10 0 7 -167 10 -480 10 -313 0
-480 -3 -480 -10z m3170 -3849 c139 -26 211 -51 329 -114 296 -155 504 -445
552 -767 19 -133 21 -233 4 -330 -9 -52 -19 -110 -22 -128 -3 -18 -9 -35 -14
-38 -5 -3 -9 -16 -9 -29 0 -13 -4 -27 -10 -30 -5 -3 -10 -13 -10 -22 0 -8 -11
-36 -24 -62 -92 -182 -197 -306 -352 -417 -68 -48 -194 -114 -259 -134 -22 -7
-49 -16 -60 -21 -29 -11 -70 -19 -160 -31 -128 -17 -196 -14 -408 18 -20 4
-40 10 -43 15 -3 5 -14 9 -25 9 -10 0 -27 4 -37 9 -9 6 -57 29 -105 51 -106
50 -222 135 -305 224 -81 88 -134 166 -195 291 -11 22 -23 48 -28 57 -5 10 -9
25 -9 33 0 8 -4 23 -9 33 -9 16 -18 58 -41 186 -14 85 -12 208 6 301 9 44 18
97 21 118 3 20 9 40 14 43 5 3 9 14 9 25 0 10 4 27 9 37 5 9 23 47 40 83 116
244 348 453 596 537 113 38 164 52 197 53 18 1 44 5 58 10 31 10 215 4 290
-10z m-2926 -457 c19 -19 20 -26 4 -42 -16 -16 -43 -15 -58 3 -10 13 -10 19 5
35 22 24 29 25 49 4z m494 -226 c3 -29 46 -78 68 -78 8 0 22 -4 32 -9 9 -5 49
-21 87 -36 39 -15 79 -31 90 -35 11 -5 38 -14 60 -21 70 -23 70 -23 70 -170
l0 -133 -45 -16 c-58 -22 -81 -30 -105 -40 -11 -4 -36 -13 -55 -20 -201 -69
-218 -92 -181 -235 5 -22 13 -53 16 -70 4 -16 10 -39 15 -50 5 -11 11 -33 15
-50 3 -16 10 -46 15 -65 5 -19 15 -57 22 -84 8 -32 24 -62 46 -84 38 -37 31
-36 177 -13 33 5 92 14 130 20 39 6 86 14 105 17 33 5 36 3 55 -33 21 -41 54
-97 93 -155 28 -42 30 -36 -43 -119 -146 -169 -185 -225 -185 -268 0 -31 15
-50 148 -184 190 -193 211 -209 265 -209 45 -1 62 10 222 142 33 27 75 62 94
77 l33 27 42 -24 c22 -13 73 -41 111 -61 79 -41 78 -36 56 -174 -7 -38 -16
-95 -20 -125 -5 -30 -12 -73 -16 -95 -5 -33 -2 -46 17 -74 23 -34 43 -44 123
-61 22 -5 59 -14 83 -19 23 -6 59 -15 80 -20 20 -5 73 -18 116 -30 108 -29
139 -27 176 8 17 15 30 35 30 43 0 8 4 18 8 24 4 5 14 27 21 49 7 22 19 54 26
70 7 17 23 57 35 90 41 112 29 103 150 107 59 2 114 2 121 0 8 -1 22 -24 32
-50 11 -26 22 -56 27 -67 4 -11 13 -36 20 -55 15 -42 29 -79 41 -102 5 -10 9
-25 9 -33 0 -8 16 -32 35 -54 l35 -39 -2 -508 -3 -509 -3115 0 -3115 0 -3
1805 c-1 993 0 1811 3 1818 3 10 372 12 1817 10 l1813 -3 3 -27z"/>
<path d="M7885 7044 c-120 -28 -300 -108 -355 -158 -14 -12 -42 -35 -63 -50
-54 -39 -152 -177 -204 -286 -64 -135 -95 -382 -65 -525 15 -73 53 -197 64
-210 4 -5 8 -17 8 -26 0 -10 3 -19 8 -21 4 -1 25 -30 46 -63 57 -86 114 -157
145 -177 14 -10 48 -36 74 -57 103 -81 260 -143 412 -161 391 -48 751 156 915
516 98 215 90 541 -17 749 -36 70 -130 202 -172 242 -38 35 -152 115 -211 147
-45 24 -157 62 -238 81 -80 19 -267 18 -347 -1z"/>
</g>
</svg>
